<?xml version="1.0" encoding="UTF-8"?>
<svg width="179px" height="179px" viewBox="0 0 179 179" xmlns="http://www.w3.org/2000/svg" xmlns:xlink="http://www.w3.org/1999/xlink" version="1.1">
 <!-- Generated by Pixelmator Pro 2.0.1 -->
 <defs>
  <linearGradient id="linear-gradient" gradientUnits="userSpaceOnUse" x1="-376.392" y1="358.282" x2="-462.034" y2="300.112">
   <stop offset="0" stop-color="#c906f9" stop-opacity="1"/>
   <stop offset="0.448" stop-color="#a803fc" stop-opacity="1"/>
   <stop offset="0.863" stop-color="#8700ff" stop-opacity="1"/>
  </linearGradient>
 </defs>
 <path id="Path" d="M96.67 143.67 C108.876 142.049 120.181 136.363 128.76 127.53 L178.73 76.31 C175.55 75.791 172.332 75.55 169.11 75.59 154.642 75.624 140.798 81.489 130.71 91.86 L112.28 110.74 C112.17 110.86 112.05 110.98 111.93 111.11 99.877 123.475 80.117 123.836 67.62 111.92 L86.87 130.7 C90.771 134.506 94.075 138.878 96.67 143.67 Z" fill-opacity="1" fill="url(#linear-gradient)" stroke="none"/>
 <defs>
  <linearGradient id="linear-gradient-1" gradientUnits="userSpaceOnUse" x1="-484.598" y1="321.148" x2="-505.422" y2="242.63">
   <stop offset="0" stop-color="#0044ff" stop-opacity="1"/>
   <stop offset="0.49" stop-color="#0087ff" stop-opacity="1"/>
   <stop offset="1" stop-color="#00caff" stop-opacity="1"/>
  </linearGradient>
 </defs>
 <path id="Path-1" d="M51.201 128.75 L102.421 178.72 C104.372 166.715 102.349 154.401 96.661 143.65 94.071 138.857 90.767 134.487 86.861 130.69 L67.611 111.91 C61.509 106.101 57.988 98.091 57.832 89.668 57.676 81.245 60.899 73.111 66.781 67.08 L48.021 86.33 C44.154 90.306 39.694 93.659 34.801 96.27 36.403 108.65 42.189 120.111 51.201 128.75 Z" fill-opacity="1" fill="url(#linear-gradient-1)" stroke="none"/>
 <defs>
  <linearGradient id="linear-gradient-2" gradientUnits="userSpaceOnUse" x1="-550.649" y1="358.192" x2="-508.027" y2="345.24">
   <stop offset="0" stop-color="#b0ff33" stop-opacity="1"/>
   <stop offset="0.495" stop-color="#55df20" stop-opacity="1"/>
   <stop offset="1" stop-color="#0ac222" stop-opacity="1"/>
  </linearGradient>
 </defs>
 <path id="Path-2" d="M-0 101.91 C3.179 102.431 6.399 102.669 9.62 102.62 18.4 102.561 27.036 100.39 34.8 96.29 39.695 93.682 44.155 90.328 48.02 86.35 L66.81 67.1 C72.642 61.106 80.619 57.678 88.982 57.571 97.344 57.464 105.406 60.687 111.39 66.53 L92.39 48 C88.338 44.062 84.933 39.509 82.3 34.51 70.009 36.091 58.616 41.791 49.98 50.68 Z" fill-opacity="1" fill="url(#linear-gradient-2)" stroke="none"/>
 <defs>
  <linearGradient id="linear-gradient-3" gradientUnits="userSpaceOnUse" x1="-499.01" y1="355.551" x2="-426.923" y2="372.672">
   <stop offset="0" stop-color="#ff8100" stop-opacity="1"/>
   <stop offset="0.5" stop-color="#ff5d00" stop-opacity="1"/>
   <stop offset="1" stop-color="#ff3600" stop-opacity="1"/>
  </linearGradient>
 </defs>
 <path id="Path-3" d="M112.28 110.76 L130.71 91.88 C134.577 87.904 139.036 84.551 143.93 81.94 142.359 69.813 136.772 58.561 128.06 49.98 L76.84 0 C76.321 3.18 76.08 6.398 76.12 9.62 76.18 18.296 78.301 26.835 82.31 34.53 84.943 39.529 88.349 44.082 92.4 48.02 L111.39 66.55 C123.724 78.565 124.12 98.258 112.28 110.76 Z" fill-opacity="1" fill="url(#linear-gradient-3)" stroke="none"/>
</svg>
